# xmcd CD database file
#
# Track frame offsets:
#	150
#	12532
#	23651
#	41941
#	56731
#	68788
#	84244
#	96890
#	112292
#	129492
#	132074
#	143258
#	159643
#
# Disc length: 2292 seconds
#
# Revision: 3
# Processed by: cddbd v1.5.2PL0 Copyright (c) Steve Scherf et al.
# Submitted via: CDex 1.72
#
DISCID=ae08f20d
DTITLE=Cleaves, Slaid (USA-06-Unsung-cty) - Unsung
DYEAR=2006
DGENRE=Folk
TTITLE0=Devil's Lullaby
TTITLE1=Another Kind of Blue
TTITLE2=Everette
TTITLE3=Oh Roberta
TTITLE4=Racecar Joe
TTITLE5=Call It Sleep
TTITLE6=Millionaire
TTITLE7=Fairest of Them All
TTITLE8=Flowered Dresses
TTITLE9=Gospel Moment
TTITLE10=Working Stiff
TTITLE11=Getaway Car
TTITLE12=Song for June
EXTD=YEAR: 2006
EXTT0=
EXTT1=
EXTT2=
EXTT3=
EXTT4=
EXTT5=
EXTT6=
EXTT7=
EXTT8=
EXTT9=
EXTT10=
EXTT11=
EXTT12=
PLAYORDER=
